<svg width="400" height="400" viewBox="0 0 400 400" fill="none" xmlns="http://www.w3.org/2000/svg">
<circle cx="200" cy="200" r="200" fill="black"/>
<clipPath id="circleClip">
  <circle cx="200" cy="200" r="200"/>
</clipPath>
<g clip-path="url(#circleClip)">
<path d="M36.233 293V282.818H39.6733C40.4721 282.818 41.125 282.962 41.6321 283.251C42.1425 283.536 42.5204 283.922 42.7656 284.409C43.0109 284.896 43.1335 285.44 43.1335 286.04C43.1335 286.64 43.0109 287.185 42.7656 287.675C42.5237 288.166 42.1491 288.557 41.642 288.849C41.1349 289.137 40.4853 289.281 39.6932 289.281H37.2273V288.188H39.6534C40.2003 288.188 40.6394 288.093 40.9709 287.904C41.3023 287.715 41.5426 287.46 41.6918 287.138C41.8442 286.814 41.9205 286.447 41.9205 286.04C41.9205 285.632 41.8442 285.268 41.6918 284.946C41.5426 284.625 41.3007 284.373 40.9659 284.19C40.6312 284.005 40.187 283.912 39.6335 283.912H37.4659V293H36.233ZM53.7106 287.909C53.7106 288.983 53.5167 289.911 53.1289 290.693C52.7411 291.475 52.2092 292.079 51.533 292.503C50.8569 292.927 50.0846 293.139 49.2163 293.139C48.3479 293.139 47.5756 292.927 46.8995 292.503C46.2234 292.079 45.6914 291.475 45.3036 290.693C44.9158 289.911 44.7219 288.983 44.7219 287.909C44.7219 286.835 44.9158 285.907 45.3036 285.125C45.6914 284.343 46.2234 283.74 46.8995 283.315C47.5756 282.891 48.3479 282.679 49.2163 282.679C50.0846 282.679 50.8569 282.891 51.533 283.315C52.2092 283.74 52.7411 284.343 53.1289 285.125C53.5167 285.907 53.7106 286.835 53.7106 287.909ZM52.5174 287.909C52.5174 287.027 52.3699 286.283 52.0749 285.677C51.7833 285.07 51.3872 284.611 50.8867 284.3C50.3896 283.988 49.8327 283.832 49.2163 283.832C48.5998 283.832 48.0413 283.988 47.5408 284.3C47.0437 284.611 46.6476 285.07 46.3526 285.677C46.061 286.283 45.9151 287.027 45.9151 287.909C45.9151 288.791 46.061 289.535 46.3526 290.141C46.6476 290.748 47.0437 291.207 47.5408 291.518C48.0413 291.83 48.5998 291.986 49.2163 291.986C49.8327 291.986 50.3896 291.83 50.8867 291.518C51.3872 291.207 51.7833 290.748 52.0749 290.141C52.3699 289.535 52.5174 288.791 52.5174 287.909ZM55.7837 293V282.818H59.2241C60.0195 282.818 60.6725 282.954 61.1829 283.226C61.6933 283.494 62.0711 283.864 62.3164 284.335C62.5617 284.805 62.6843 285.34 62.6843 285.94C62.6843 286.54 62.5617 287.072 62.3164 287.536C62.0711 288 61.695 288.365 61.1879 288.63C60.6808 288.892 60.0328 289.023 59.244 289.023H56.4599V287.909H59.2042C59.7478 287.909 60.1853 287.83 60.5167 287.67C60.8514 287.511 61.0934 287.286 61.2425 286.994C61.395 286.699 61.4712 286.348 61.4712 285.94C61.4712 285.533 61.395 285.176 61.2425 284.871C61.0901 284.567 60.8465 284.331 60.5117 284.165C60.177 283.996 59.7345 283.912 59.1843 283.912H57.0167V293H55.7837ZM60.5763 288.426L63.082 293H61.6502L59.1843 288.426H60.5763ZM64.182 283.912V282.818H71.8184V283.912H68.6167V293H67.3837V283.912H64.182ZM73.7212 293V282.818H77.1616C77.957 282.818 78.61 282.954 79.1204 283.226C79.6308 283.494 80.0086 283.864 80.2539 284.335C80.4992 284.805 80.6218 285.34 80.6218 285.94C80.6218 286.54 80.4992 287.072 80.2539 287.536C80.0086 288 79.6325 288.365 79.1254 288.63C78.6183 288.892 77.9703 289.023 77.1815 289.023H74.3974V287.909H77.1417C77.6853 287.909 78.1228 287.83 78.4542 287.67C78.7889 287.511 79.0309 287.286 79.18 286.994C79.3325 286.699 79.4087 286.348 79.4087 285.94C79.4087 285.533 79.3325 285.176 79.18 284.871C79.0276 284.567 78.784 284.331 78.4492 284.165C78.1145 283.996 77.672 283.912 77.1218 283.912H74.9542V293H73.7212ZM78.5138 288.426L81.0195 293H79.5877L77.1218 288.426H78.5138ZM83.0939 293H81.8013L85.54 282.818H86.8127L90.5513 293H89.2587L86.2161 284.429H86.1365L83.0939 293ZM83.5712 289.023H88.7814V290.116H83.5712V289.023ZM93.3702 282.818V293H92.1373V282.818H93.3702ZM95.2855 283.912V282.818H102.922V283.912H99.7202V293H98.4872V283.912H95.2855ZM111.467 290.097C111.066 290.097 110.7 289.999 110.368 289.803C110.037 289.604 109.771 289.339 109.573 289.008C109.377 288.676 109.279 288.31 109.279 287.909C109.279 287.505 109.377 287.138 109.573 286.81C109.771 286.479 110.037 286.215 110.368 286.02C110.7 285.821 111.066 285.722 111.467 285.722C111.871 285.722 112.237 285.821 112.566 286.02C112.897 286.215 113.16 286.479 113.356 286.81C113.555 287.138 113.654 287.505 113.654 287.909C113.654 288.31 113.555 288.676 113.356 289.008C113.16 289.339 112.897 289.604 112.566 289.803C112.237 289.999 111.871 290.097 111.467 290.097ZM120.575 293V282.818H124.015C124.811 282.818 125.463 282.954 125.974 283.226C126.484 283.494 126.862 283.864 127.107 284.335C127.353 284.805 127.475 285.34 127.475 285.94C127.475 286.54 127.353 287.072 127.107 287.536C126.862 288 126.486 288.365 125.979 288.63C125.472 288.892 124.824 289.023 124.035 289.023H121.251V287.909H123.995C124.539 287.909 124.976 287.83 125.308 287.67C125.642 287.511 125.884 287.286 126.034 286.994C126.186 286.699 126.262 286.348 126.262 285.94C126.262 285.533 126.186 285.176 126.034 284.871C125.881 284.567 125.637 284.331 125.303 284.165C124.968 283.996 124.526 283.912 123.975 283.912H121.808V293H120.575ZM125.367 288.426L127.873 293H126.441L123.975 288.426H125.367ZM129.53 293V282.818H135.675V283.912H130.763V287.352H135.357V288.446H130.763V291.906H135.754V293H129.53ZM132.055 281.784L133.268 279.477H134.641L133.089 281.784H132.055ZM143.465 285.364C143.406 284.86 143.164 284.469 142.739 284.19C142.315 283.912 141.795 283.773 141.178 283.773C140.728 283.773 140.333 283.846 139.995 283.991C139.66 284.137 139.398 284.338 139.21 284.593C139.024 284.848 138.931 285.138 138.931 285.463C138.931 285.735 138.996 285.969 139.125 286.164C139.258 286.356 139.427 286.517 139.632 286.646C139.838 286.772 140.053 286.877 140.278 286.96C140.504 287.039 140.711 287.104 140.9 287.153L141.934 287.432C142.199 287.501 142.494 287.598 142.819 287.72C143.147 287.843 143.46 288.01 143.759 288.222C144.06 288.431 144.309 288.7 144.504 289.028C144.7 289.356 144.798 289.759 144.798 290.236C144.798 290.786 144.653 291.283 144.365 291.727C144.08 292.171 143.662 292.524 143.112 292.786C142.565 293.048 141.901 293.179 141.119 293.179C140.389 293.179 139.758 293.061 139.224 292.826C138.694 292.591 138.277 292.263 137.972 291.842C137.67 291.421 137.499 290.932 137.46 290.375H138.732C138.765 290.759 138.895 291.078 139.12 291.33C139.349 291.578 139.637 291.764 139.985 291.886C140.336 292.006 140.714 292.065 141.119 292.065C141.589 292.065 142.012 291.989 142.386 291.837C142.761 291.681 143.058 291.465 143.276 291.19C143.495 290.912 143.604 290.587 143.604 290.216C143.604 289.878 143.51 289.603 143.321 289.391C143.132 289.179 142.884 289.006 142.575 288.874C142.267 288.741 141.934 288.625 141.576 288.526L140.323 288.168C139.528 287.939 138.898 287.612 138.434 287.188C137.97 286.764 137.738 286.209 137.738 285.523C137.738 284.953 137.892 284.455 138.2 284.031C138.512 283.604 138.929 283.272 139.453 283.037C139.98 282.798 140.568 282.679 141.218 282.679C141.874 282.679 142.458 282.797 142.968 283.032C143.478 283.264 143.883 283.582 144.181 283.987C144.483 284.391 144.642 284.85 144.658 285.364H143.465ZM146.825 293V282.818H152.97V283.912H148.058V287.352H152.651V288.446H148.058V291.906H153.049V293H146.825ZM155.61 293H154.317L158.056 282.818H159.328L163.067 293H161.774L158.732 284.429H158.652L155.61 293ZM156.087 289.023H161.297V290.116H156.087V289.023ZM171.335 282.818H172.568V289.56C172.568 290.256 172.404 290.877 172.075 291.424C171.751 291.968 171.292 292.397 170.698 292.712C170.105 293.023 169.409 293.179 168.61 293.179C167.811 293.179 167.115 293.023 166.522 292.712C165.929 292.397 165.468 291.968 165.14 291.424C164.815 290.877 164.653 290.256 164.653 289.56V282.818H165.886V289.46C165.886 289.957 165.995 290.4 166.214 290.788C166.433 291.172 166.744 291.475 167.149 291.697C167.556 291.916 168.044 292.026 168.61 292.026C169.177 292.026 169.664 291.916 170.072 291.697C170.48 291.475 170.791 291.172 171.007 290.788C171.225 290.4 171.335 289.957 171.335 289.46V282.818ZM175.626 282.818L178.251 287.054H178.331L180.956 282.818H182.408L179.206 287.909L182.408 293H180.956L178.331 288.844H178.251L175.626 293H174.175L177.456 287.909L174.175 282.818H175.626ZM190.654 290.097C190.253 290.097 189.887 289.999 189.556 289.803C189.224 289.604 188.959 289.339 188.76 289.008C188.565 288.676 188.467 288.31 188.467 287.909C188.467 287.505 188.565 287.138 188.76 286.81C188.959 286.479 189.224 286.215 189.556 286.02C189.887 285.821 190.253 285.722 190.654 285.722C191.059 285.722 191.425 285.821 191.753 286.02C192.084 286.215 192.348 286.479 192.544 286.81C192.742 287.138 192.842 287.505 192.842 287.909C192.842 288.31 192.742 288.676 192.544 289.008C192.348 289.339 192.084 289.604 191.753 289.803C191.425 289.999 191.059 290.097 190.654 290.097ZM199.762 293V282.818H205.907V283.912H200.995V287.352H205.589V288.446H200.995V291.906H205.987V293H199.762ZM202.288 281.784L203.501 279.477H204.873L203.322 281.784H202.288ZM208.547 282.818L211.57 291.389H211.689L214.712 282.818H216.004L212.266 293H210.993L207.254 282.818H208.547ZM217.59 293V282.818H223.735V283.912H218.823V287.352H223.417V288.446H218.823V291.906H223.815V293H217.59ZM220.116 281.784L221.329 279.477H222.701L221.15 281.784H220.116ZM234.031 282.818V293H232.838L227.29 285.006H227.191V293H225.958V282.818H227.151L232.719 290.832H232.818V282.818H234.031ZM236.499 293V282.818H242.643V283.912H237.732V287.352H242.325V288.446H237.732V291.906H242.723V293H236.499ZM244.866 282.818H246.337L249.798 291.27H249.917L253.377 282.818H254.849V293H253.695V285.264H253.596L250.414 293H249.3L246.119 285.264H246.019V293H244.866V282.818ZM257.321 293V282.818H263.466V283.912H258.554V287.352H263.148V288.446H258.554V291.906H263.545V293H257.321ZM273.762 282.818V293H272.569L267.02 285.006H266.921V293H265.688V282.818H266.881L272.449 290.832H272.549V282.818H273.762ZM275.672 283.912V282.818H283.309V283.912H280.107V293H278.874V283.912H275.672ZM291.854 290.097C291.452 290.097 291.086 289.999 290.755 289.803C290.423 289.604 290.158 289.339 289.959 289.008C289.764 288.676 289.666 288.31 289.666 287.909C289.666 287.505 289.764 287.138 289.959 286.81C290.158 286.479 290.423 286.215 290.755 286.02C291.086 285.821 291.452 285.722 291.854 285.722C292.258 285.722 292.624 285.821 292.952 286.02C293.284 286.215 293.547 286.479 293.743 286.81C293.942 287.138 294.041 287.505 294.041 287.909C294.041 288.31 293.942 288.676 293.743 289.008C293.547 289.339 293.284 289.604 292.952 289.803C292.624 289.999 292.258 290.097 291.854 290.097ZM301.379 293H300.086L303.825 282.818H305.098L308.836 293H307.544L304.501 284.429H304.422L301.379 293ZM301.856 289.023H307.067V290.116H301.856V289.023ZM318.496 282.818V293H317.303L311.755 285.006H311.655V293H310.422V282.818H311.616L317.184 290.832H317.283V282.818H318.496ZM322.196 282.818V293H320.963V282.818H322.196ZM324.669 282.818H326.14L329.6 291.27H329.72L333.18 282.818H334.651V293H333.498V285.264H333.399L330.217 293H329.103L325.921 285.264H325.822V293H324.669V282.818ZM337.541 293H336.249L339.987 282.818H341.26L344.999 293H343.706L340.663 284.429H340.584L337.541 293ZM338.018 289.023H343.229V290.116H338.018V289.023ZM346.585 293V282.818H347.817V291.906H352.55V293H346.585Z" fill="#FFF3C6"/>
<path d="M96.1491 233V208.273H101.377V228.69H111.978V233H96.1491ZM127.236 225.104V214.455H132.38V233H127.442V229.631H127.248C126.83 230.718 126.134 231.591 125.16 232.251C124.194 232.911 123.015 233.241 121.622 233.241C120.382 233.241 119.292 232.96 118.35 232.396C117.408 231.833 116.672 231.032 116.14 229.994C115.617 228.955 115.352 227.712 115.344 226.263V214.455H120.487V225.345C120.495 226.44 120.789 227.305 121.368 227.941C121.948 228.577 122.725 228.895 123.699 228.895C124.318 228.895 124.898 228.754 125.437 228.472C125.977 228.183 126.411 227.756 126.741 227.192C127.079 226.629 127.244 225.933 127.236 225.104ZM144.946 233.362C143.038 233.362 141.396 232.976 140.02 232.203C138.651 231.422 137.597 230.32 136.856 228.895C136.116 227.462 135.745 225.768 135.745 223.812C135.745 221.904 136.116 220.23 136.856 218.789C137.597 217.348 138.639 216.225 139.983 215.42C141.336 214.616 142.921 214.213 144.74 214.213C145.964 214.213 147.103 214.41 148.157 214.805C149.22 215.191 150.145 215.775 150.934 216.555C151.731 217.336 152.351 218.318 152.794 219.501C153.236 220.677 153.458 222.053 153.458 223.631V225.043H137.798V221.856H148.616C148.616 221.115 148.455 220.459 148.133 219.888C147.811 219.316 147.364 218.87 146.793 218.548C146.23 218.218 145.574 218.053 144.825 218.053C144.044 218.053 143.352 218.234 142.748 218.596C142.153 218.95 141.686 219.429 141.348 220.033C141.01 220.628 140.837 221.292 140.828 222.025V225.055C140.828 225.973 140.998 226.766 141.336 227.434C141.682 228.102 142.169 228.617 142.797 228.979C143.424 229.342 144.169 229.523 145.03 229.523C145.602 229.523 146.125 229.442 146.6 229.281C147.075 229.12 147.481 228.879 147.819 228.557C148.157 228.235 148.415 227.84 148.592 227.374L153.349 227.688C153.108 228.83 152.613 229.829 151.864 230.682C151.123 231.527 150.166 232.187 148.99 232.662C147.823 233.129 146.475 233.362 144.946 233.362ZM168.707 225.104V214.455H173.85V233H168.912V229.631H168.719C168.301 230.718 167.604 231.591 166.63 232.251C165.664 232.911 164.485 233.241 163.093 233.241C161.853 233.241 160.762 232.96 159.821 232.396C158.879 231.833 158.142 231.032 157.611 229.994C157.088 228.955 156.822 227.712 156.814 226.263V214.455H161.958V225.345C161.966 226.44 162.26 227.305 162.839 227.941C163.419 228.577 164.195 228.895 165.169 228.895C165.789 228.895 166.369 228.754 166.908 228.472C167.447 228.183 167.882 227.756 168.212 227.192C168.55 226.629 168.715 225.933 168.707 225.104ZM177.965 233V214.455H182.951V217.69H183.144C183.482 216.539 184.05 215.67 184.847 215.082C185.644 214.487 186.561 214.189 187.6 214.189C187.857 214.189 188.135 214.205 188.433 214.237C188.731 214.269 188.992 214.314 189.218 214.37V218.934C188.976 218.862 188.642 218.797 188.215 218.741C187.789 218.684 187.398 218.656 187.044 218.656C186.288 218.656 185.611 218.821 185.016 219.151C184.428 219.473 183.961 219.924 183.615 220.504C183.277 221.083 183.108 221.751 183.108 222.508V233H177.965ZM205.387 215.384C205.291 214.41 204.876 213.654 204.144 213.114C203.411 212.575 202.417 212.305 201.162 212.305C200.308 212.305 199.588 212.426 199 212.668C198.413 212.901 197.962 213.227 197.648 213.646C197.342 214.064 197.189 214.539 197.189 215.07C197.173 215.513 197.266 215.899 197.467 216.229C197.676 216.559 197.962 216.845 198.324 217.087C198.686 217.32 199.105 217.525 199.58 217.702C200.055 217.871 200.562 218.016 201.101 218.137L203.323 218.668C204.401 218.91 205.391 219.232 206.293 219.634C207.194 220.037 207.975 220.532 208.635 221.119C209.295 221.707 209.806 222.399 210.169 223.196C210.539 223.993 210.728 224.906 210.736 225.937C210.728 227.45 210.342 228.762 209.577 229.873C208.82 230.976 207.726 231.833 206.293 232.445C204.868 233.048 203.15 233.35 201.137 233.35C199.141 233.35 197.403 233.044 195.922 232.433C194.449 231.821 193.297 230.915 192.468 229.716C191.647 228.509 191.217 227.015 191.176 225.237H196.235C196.292 226.066 196.529 226.758 196.948 227.313C197.374 227.861 197.942 228.275 198.65 228.557C199.367 228.83 200.176 228.967 201.077 228.967C201.962 228.967 202.731 228.839 203.383 228.581C204.043 228.323 204.554 227.965 204.917 227.506C205.279 227.048 205.46 226.52 205.46 225.925C205.46 225.369 205.295 224.902 204.965 224.524C204.643 224.146 204.168 223.824 203.54 223.558C202.92 223.293 202.16 223.051 201.258 222.834L198.566 222.158C196.481 221.651 194.835 220.858 193.627 219.779C192.42 218.701 191.82 217.248 191.828 215.42C191.82 213.923 192.219 212.615 193.024 211.496C193.837 210.378 194.952 209.504 196.368 208.876C197.785 208.249 199.395 207.935 201.198 207.935C203.033 207.935 204.635 208.249 206.003 208.876C207.38 209.504 208.45 210.378 209.215 211.496C209.98 212.615 210.374 213.911 210.398 215.384H205.387ZM224.02 214.455V218.318H212.852V214.455H224.02ZM215.388 210.011H220.531V227.301C220.531 227.776 220.604 228.146 220.748 228.412C220.893 228.67 221.095 228.851 221.352 228.955C221.618 229.06 221.924 229.112 222.27 229.112C222.511 229.112 222.753 229.092 222.994 229.052C223.236 229.004 223.421 228.967 223.55 228.943L224.358 232.771C224.101 232.851 223.739 232.944 223.272 233.048C222.805 233.161 222.238 233.229 221.569 233.254C220.33 233.302 219.243 233.137 218.309 232.759C217.384 232.38 216.663 231.793 216.148 230.996C215.633 230.199 215.38 229.193 215.388 227.977V210.011ZM239.264 225.104V214.455H244.407V233H239.469V229.631H239.276C238.857 230.718 238.161 231.591 237.187 232.251C236.221 232.911 235.042 233.241 233.649 233.241C232.41 233.241 231.319 232.96 230.377 232.396C229.436 231.833 228.699 231.032 228.168 229.994C227.645 228.955 227.379 227.712 227.371 226.263V214.455H232.514V225.345C232.522 226.44 232.816 227.305 233.396 227.941C233.975 228.577 234.752 228.895 235.726 228.895C236.346 228.895 236.925 228.754 237.465 228.472C238.004 228.183 238.439 227.756 238.769 227.192C239.107 226.629 239.272 225.933 239.264 225.104ZM255.355 233.302C253.946 233.302 252.671 232.94 251.528 232.215C250.393 231.483 249.491 230.408 248.823 228.991C248.163 227.567 247.833 225.82 247.833 223.751C247.833 221.626 248.175 219.86 248.859 218.451C249.544 217.034 250.453 215.976 251.588 215.276C252.731 214.567 253.983 214.213 255.343 214.213C256.381 214.213 257.247 214.39 257.939 214.744C258.639 215.09 259.203 215.525 259.629 216.048C260.064 216.563 260.394 217.071 260.619 217.57H260.776V208.273H265.908V233H260.837V230.03H260.619C260.378 230.545 260.036 231.056 259.593 231.563C259.158 232.062 258.591 232.477 257.891 232.807C257.198 233.137 256.353 233.302 255.355 233.302ZM256.985 229.209C257.814 229.209 258.514 228.983 259.086 228.533C259.665 228.074 260.108 227.434 260.414 226.613C260.728 225.792 260.885 224.83 260.885 223.727C260.885 222.625 260.732 221.667 260.426 220.854C260.12 220.041 259.678 219.413 259.098 218.97C258.518 218.527 257.814 218.306 256.985 218.306C256.14 218.306 255.428 218.536 254.848 218.994C254.268 219.453 253.83 220.089 253.532 220.902C253.234 221.715 253.085 222.657 253.085 223.727C253.085 224.806 253.234 225.76 253.532 226.589C253.838 227.41 254.277 228.054 254.848 228.521C255.428 228.979 256.14 229.209 256.985 229.209ZM270.137 233V214.455H275.28V233H270.137ZM272.72 212.064C271.956 212.064 271.3 211.81 270.752 211.303C270.213 210.788 269.943 210.172 269.943 209.456C269.943 208.748 270.213 208.14 270.752 207.633C271.3 207.118 271.956 206.86 272.72 206.86C273.485 206.86 274.137 207.118 274.676 207.633C275.224 208.14 275.497 208.748 275.497 209.456C275.497 210.172 275.224 210.788 274.676 211.303C274.137 211.81 273.485 212.064 272.72 212.064ZM287.779 233.362C285.904 233.362 284.282 232.964 282.914 232.167C281.553 231.362 280.503 230.243 279.762 228.81C279.022 227.37 278.652 225.699 278.652 223.8C278.652 221.884 279.022 220.21 279.762 218.777C280.503 217.336 281.553 216.217 282.914 215.42C284.282 214.616 285.904 214.213 287.779 214.213C289.655 214.213 291.273 214.616 292.633 215.42C294.002 216.217 295.056 217.336 295.797 218.777C296.537 220.21 296.907 221.884 296.907 223.8C296.907 225.699 296.537 227.37 295.797 228.81C295.056 230.243 294.002 231.362 292.633 232.167C291.273 232.964 289.655 233.362 287.779 233.362ZM287.804 229.378C288.657 229.378 289.369 229.136 289.941 228.653C290.512 228.162 290.943 227.494 291.233 226.649C291.53 225.804 291.679 224.842 291.679 223.763C291.679 222.685 291.53 221.723 291.233 220.878C290.943 220.033 290.512 219.365 289.941 218.874C289.369 218.383 288.657 218.137 287.804 218.137C286.942 218.137 286.218 218.383 285.63 218.874C285.051 219.365 284.612 220.033 284.314 220.878C284.025 221.723 283.88 222.685 283.88 223.763C283.88 224.842 284.025 225.804 284.314 226.649C284.612 227.494 285.051 228.162 285.63 228.653C286.218 229.136 286.942 229.378 287.804 229.378Z" fill="#FEF3C5"/>
<path d="M260.904 98.6477C255.931 98.6477 252.997 98.6203 251.149 98.2952C250.163 98.1215 249.317 97.8395 248.571 97.3274C247.842 96.8268 247.358 96.2033 246.967 95.6633L246.953 95.6438C243.975 91.4251 246.458 85.8463 251.313 84.6243V84.6223C251.32 84.6207 251.327 84.62 251.333 84.6184C251.336 84.6177 251.339 84.6162 251.342 84.6155V84.6165C251.743 84.5162 252.353 84.4728 252.86 84.4436C253.476 84.4081 254.269 84.3787 255.176 84.3567C256.992 84.3126 259.319 84.2952 261.719 84.3127H261.723C265.577 84.3473 267.851 84.3825 269.275 84.4836C270.738 84.5875 271.601 84.7754 272.467 85.2883L272.49 85.302L272.514 85.3167C273.514 85.9472 274.355 86.7209 274.964 87.7268C275.571 88.7302 275.872 89.8423 275.979 91.0413L275.98 91.0569L275.982 91.0735C276.039 91.8458 276.048 92.5924 275.874 93.3391C275.693 94.1167 275.35 94.7376 274.951 95.3264H274.952C274.557 95.9144 274.077 96.6003 273.369 97.1526C272.618 97.7385 271.76 98.0667 270.745 98.2659C268.885 98.6308 265.927 98.6477 260.904 98.6477ZM211.845 167.254C190.89 173.346 169.041 160.939 163.322 139.763C162.894 138.194 162.626 137.054 162.479 135.617C162.337 134.226 162.312 132.595 162.312 130.051C162.312 123.519 162.829 120.329 164.966 115.098L164.968 115.094C170.4 101.879 183.188 92.4237 197.472 91.175C200.418 90.9173 201.139 90.9261 205.695 91.3499L205.697 91.3508C219.034 92.6069 231.763 102.297 237.007 115.096V115.098C239.143 120.329 239.661 123.519 239.661 130.051C239.661 132.595 239.637 134.226 239.494 135.617C239.347 137.054 239.079 138.194 238.651 139.763H238.65C235.095 152.948 224.843 163.507 211.844 167.254H211.845ZM129.221 71.595L127.382 71.7444L124.82 71.9514H124.821C121.632 72.2328 119.525 73.1378 117.673 74.8167C115.764 76.5461 114.697 78.4559 114.224 80.8401C114.221 80.8618 114.213 80.9282 114.202 81.0588C114.189 81.2214 114.175 81.4418 114.161 81.7268C114.134 82.296 114.109 83.0831 114.087 84.1125C114.043 86.1696 114.011 89.1492 113.989 93.1956C113.946 101.286 113.946 113.606 113.98 131.264L114.084 179.53L114.969 181.383L114.974 181.393C116.132 183.859 117.95 185.677 120.416 186.836L120.427 186.841L122.281 187.725H279.692L281.547 186.841L281.558 186.836C284.024 185.677 285.841 183.859 287 181.393L287.005 181.383L287.889 179.53L287.993 131.264C288.028 113.606 288.028 101.286 287.984 93.1956C287.963 89.1492 287.93 86.1696 287.886 84.1125C287.864 83.0831 287.839 82.296 287.811 81.7268C287.798 81.4418 287.785 81.2214 287.771 81.0588C287.762 80.9396 287.753 80.874 287.75 80.8469C287.532 79.8446 287.007 78.3536 286.632 77.6575L286.626 77.6467C286.163 76.7742 285.298 75.7294 284.217 74.7698C283.137 73.8119 281.983 73.0632 281.039 72.6858L281.033 72.6838L279.405 72.0276L254.842 71.9241L229.858 71.8196L228.727 71.8157L228.147 70.842L223.765 63.467C220.921 58.693 219.56 56.4111 218.719 55.1965C218.309 54.6049 218.098 54.3805 217.974 54.2698C217.917 54.2196 217.865 54.1793 217.778 54.1243L217.375 53.8909C217.16 53.7713 217.083 53.7359 216.878 53.6917C216.583 53.6281 216.053 53.5628 214.954 53.5159C212.769 53.4225 208.789 53.4133 200.952 53.4133C192.989 53.4133 189.003 53.414 186.847 53.5032C185.758 53.5482 185.271 53.6124 185.021 53.6702C184.88 53.7029 184.85 53.716 184.64 53.8459L184.635 53.8489C184.193 54.1197 184.098 54.1775 183.977 54.2844C183.868 54.3815 183.682 54.5761 183.304 55.1243C182.713 55.979 181.84 57.4125 180.254 60.0549L178.415 63.1233L173.789 70.8792L173.208 71.8547H154.448V67.3147C154.448 65.8768 154.269 65.1462 154.045 64.7209C153.862 64.3739 153.55 64.042 152.737 63.675L152.704 63.6594C152.352 63.4924 152.034 63.3524 150.592 63.2659C149.069 63.1746 146.539 63.1565 141.835 63.1565C136.804 63.1565 134.306 63.1655 132.867 63.26C132.165 63.3061 131.813 63.3684 131.593 63.427C131.398 63.4787 131.245 63.5435 130.918 63.7024C130.187 64.098 129.847 64.465 129.639 64.8752C129.4 65.3464 129.221 66.0983 129.221 67.4543V71.595Z" stroke="url(#paint0_linear_2_51)" stroke-width="4"/>
<path d="M201 84L235.5 99.3333L246 130L235.5 160.667L201 176L166.5 160.667L156 130L166.5 99.3333L201 84Z" stroke="url(#paint1_linear_2_51)" stroke-width="4" stroke-linecap="round" stroke-linejoin="round"/>
<defs>
<linearGradient id="paint0_linear_2_51" x1="111.955" y1="189.725" x2="13513.2" y2="-17063.1" gradientUnits="userSpaceOnUse">
<stop stop-color="#FFF4C7"/>
<stop offset="0.3" stop-color="#F4D270"/>
<stop offset="0.7" stop-color="#D6A84A"/>
<stop offset="1" stop-color="#B8862A"/>
</linearGradient>
<linearGradient id="paint1_linear_2_51" x1="156" y1="84" x2="9353.78" y2="9081.83" gradientUnits="userSpaceOnUse">
<stop stop-color="#FFF4C7"/>
<stop offset="0.3" stop-color="#F4D270"/>
<stop offset="0.7" stop-color="#D6A84A"/>
<stop offset="1" stop-color="#B8862A"/>
</linearGradient>
</defs>
</g>
</svg>

